<?xml version="1.0" standalone="no"?>
<!DOCTYPE svg PUBLIC "-//W3C//DTD SVG 20010904//EN"
 "http://www.w3.org/TR/2001/REC-SVG-20010904/DTD/svg10.dtd">
<svg version="1.0" xmlns="http://www.w3.org/2000/svg"
 width="1200.000000pt" height="1200.000000pt" viewBox="0 0 1200.000000 1200.000000"
 preserveAspectRatio="xMidYMid meet">

<g transform="translate(0.000000,1200.000000) scale(0.100000,-0.100000)"
fill="#000000" stroke="none">
<path d="M6080 8955 c-162 -34 -513 -109 -780 -165 -267 -56 -488 -105 -491
-108 -4 -4 -16 -36 -27 -72 -11 -36 -111 -339 -221 -675 -110 -335 -209 -639
-220 -674 -39 -119 -27 -156 58 -186 59 -21 86 -19 115 8 25 23 32 42 366
1067 l112 345 277 58 c152 32 337 71 411 87 74 15 234 49 355 75 121 25 229
48 241 51 17 4 80 -61 360 -372 186 -208 365 -406 396 -440 56 -61 56 -62 47
-103 -20 -88 26 -190 108 -238 40 -23 59 -28 114 -27 112 0 194 67 219 178 29
130 -75 264 -207 267 -37 0 -47 10 -425 432 -212 238 -410 460 -440 494 -29
34 -57 62 -63 61 -5 0 -143 -28 -305 -63z m1281 -1041 c42 -21 72 -89 59 -134
-20 -70 -91 -111 -154 -90 -99 32 -121 160 -37 217 40 27 89 30 132 7z"/>
<path d="M6218 8518 c-105 -216 -223 -412 -362 -603 -158 -217 -317 -389 -541
-587 -55 -48 -240 -185 -279 -205 -19 -11 -25 -18 -16 -20 19 -3 938 142 946
150 3 3 18 61 34 129 48 212 149 657 185 813 19 83 51 217 70 300 19 82 33
151 31 152 -2 2 -32 -56 -68 -129z"/>
<path d="M7486 7418 c-24 -23 -59 -122 -281 -808 -42 -129 -104 -318 -138
-420 l-62 -185 -625 -132 c-344 -72 -637 -134 -651 -137 -28 -5 -26 -7 -534
559 -40 44 -120 133 -177 197 l-106 118 10 42 c19 85 -27 187 -105 232 -154
91 -343 -17 -341 -194 2 -119 99 -220 213 -220 27 0 44 -6 53 -19 12 -16 205
-232 701 -783 140 -155 172 -187 190 -183 33 8 332 71 497 106 80 16 352 74
604 127 l460 97 141 435 c78 239 188 574 244 745 55 170 101 326 101 346 0 42
-21 64 -77 85 -55 19 -89 17 -117 -8z m-2717 -620 c75 -46 68 -173 -10 -214
-120 -62 -239 83 -152 186 14 18 36 36 47 41 25 10 89 3 115 -13z"/>
<path d="M6590 7324 c-217 -35 -425 -68 -461 -74 l-67 -11 -10 -47 c-9 -44
-46 -206 -128 -562 -19 -85 -50 -222 -69 -305 -19 -82 -50 -219 -69 -304 -20
-85 -36 -159 -36 -165 0 -6 36 61 78 149 288 590 704 1071 1188 1372 18 11 17
12 -6 11 -14 0 -203 -29 -420 -64z"/>
<path d="M1768 4631 c-108 -35 -203 -112 -262 -214 -43 -72 -55 -170 -56 -429
l0 -228 90 0 90 0 0 253 c0 244 1 254 24 303 28 60 78 113 132 140 35 17 66
19 296 22 l257 3 3 85 3 84 -260 -1 c-224 0 -268 -3 -317 -18z"/>
<path d="M2570 4396 c0 -277 7 -323 64 -419 58 -100 192 -188 317 -208 225
-36 456 126 499 351 5 29 10 160 10 291 l0 239 -87 0 -88 0 3 -221 c3 -248 -7
-312 -58 -382 -38 -51 -100 -93 -163 -108 -121 -29 -259 52 -307 181 -9 24
-15 110 -18 283 l-4 247 -84 0 -84 0 0 -254z"/>
<path d="M3680 4433 c0 -120 5 -249 10 -288 24 -170 147 -310 315 -361 51 -16
98 -18 315 -19 l255 0 3 81 3 82 -253 3 -253 4 -57 28 c-70 34 -110 78 -137
152 -19 51 -21 76 -21 295 l0 240 -90 0 -90 0 0 -217z"/>
<path d="M5136 4640 c-145 -37 -266 -151 -315 -298 -19 -56 -21 -85 -21 -322
l0 -261 88 3 87 3 2 225 c1 124 4 244 7 268 17 133 146 232 287 219 98 -9 178
-67 221 -162 21 -47 23 -66 26 -302 l4 -253 84 0 84 0 0 263 c0 251 -1 265
-24 330 -44 122 -137 220 -256 268 -63 24 -209 35 -274 19z"/>
<path d="M5912 4208 l3 -443 88 -3 87 -3 0 446 0 445 -90 0 -90 0 2 -442z"/>
<path d="M6620 4628 c-122 -43 -225 -140 -272 -255 -22 -55 -23 -73 -26 -335
l-3 -278 85 0 84 0 5 253 c2 155 8 266 15 288 18 53 85 124 147 155 46 22 65
26 117 22 78 -5 148 -38 194 -92 58 -68 64 -101 64 -378 l0 -248 90 0 90 0 0
239 c0 131 -5 263 -10 292 -25 133 -126 260 -256 321 -57 27 -81 32 -163 35
-81 3 -106 0 -161 -19z"/>
<path d="M7766 4639 c-112 -26 -233 -125 -287 -234 -106 -216 -18 -484 194
-592 67 -33 179 -56 242 -48 64 8 162 40 200 65 60 40 136 126 168 190 31 62
32 70 32 185 0 120 0 122 -38 197 -58 118 -159 202 -282 234 -56 15 -170 17
-229 3z m198 -171 c61 -18 148 -108 171 -177 58 -175 -74 -354 -260 -354 -72
0 -119 18 -175 70 -152 136 -103 391 87 459 48 17 124 18 177 2z"/>
<path d="M8552 4373 l3 -278 32 -67 c90 -191 292 -296 489 -254 182 37 316
169 353 344 6 30 11 155 11 292 l0 240 -87 0 -88 0 0 -248 c-1 -236 -2 -249
-24 -299 -55 -124 -196 -196 -314 -159 -63 19 -119 58 -152 106 -46 67 -55
123 -55 373 l0 227 -86 0 -85 0 3 -277z"/>
<path d="M9837 4636 c-61 -22 -120 -73 -149 -130 -16 -32 -19 -54 -16 -127 3
-78 6 -92 33 -130 37 -52 95 -94 152 -108 23 -6 135 -11 248 -11 l207 0 29
-29 c39 -39 39 -80 0 -123 l-29 -33 -327 -3 -326 -3 3 -87 3 -87 340 0 c322 1
342 2 385 22 51 23 125 98 146 148 17 42 18 143 2 197 -16 53 -75 118 -134
148 -47 24 -58 25 -282 30 -231 5 -234 5 -253 29 -26 32 -24 77 6 106 l24 25
321 0 320 0 0 90 0 90 -332 0 c-252 -1 -342 -4 -371 -14z"/>
<path d="M1882 4208 l3 -83 229 0 230 0 0 82 1 83 -233 0 -233 0 3 -82z"/>
<path d="M5160 3990 l0 -230 85 0 85 0 0 230 0 230 -85 0 -85 0 0 -230z"/>
<path d="M1486 3279 c-22 -17 -26 -28 -26 -73 0 -30 6 -61 16 -74 14 -20 23
-22 124 -22 59 0 115 -3 124 -6 21 -8 21 -60 0 -68 -9 -3 -72 -6 -140 -6
l-124 0 0 -30 0 -30 155 0 c186 0 195 4 195 95 0 85 -15 95 -144 95 -57 0
-111 3 -120 6 -10 4 -16 18 -16 35 l0 29 135 0 135 0 0 35 0 35 -144 0 c-130
0 -146 -2 -170 -21z"/>
<path d="M2733 3289 c-49 -14 -63 -51 -63 -163 0 -86 2 -98 24 -123 l24 -28
151 0 c150 0 151 0 177 27 26 25 27 31 26 127 -1 56 -6 111 -13 122 -19 36
-69 49 -186 48 -59 0 -123 -5 -140 -10z m255 -71 c7 -7 12 -43 12 -90 0 -76
-1 -79 -27 -89 -42 -16 -211 -8 -223 11 -14 22 -12 154 2 168 8 8 49 12 118
12 69 0 110 -4 118 -12z"/>
<path d="M3990 3282 c-49 -24 -61 -68 -58 -201 l3 -106 35 0 35 0 0 63 0 62
138 0 137 0 0 30 0 30 -139 0 -139 0 5 23 c11 44 20 47 149 47 l124 0 0 35 0
35 -127 0 c-102 0 -135 -4 -163 -18z"/>
<path d="M5119 3295 c-1 -3 -1 -17 -2 -32 -1 -28 -1 -28 76 -31 l76 -3 3 -127
3 -127 35 0 35 0 3 128 3 127 74 0 75 0 0 35 0 35 -190 0 c-104 0 -190 -2
-191 -5z"/>
<path d="M6330 3293 c0 -4 22 -78 48 -163 l48 -155 55 0 54 0 44 128 c24 70
46 126 49 123 2 -3 23 -61 46 -128 l41 -123 51 -3 c48 -3 52 -1 62 25 19 49
92 279 92 291 0 7 -15 12 -35 12 l-34 0 -25 -82 c-14 -46 -31 -104 -38 -130
-7 -27 -15 -48 -19 -48 -4 0 -26 56 -49 124 -41 124 -49 136 -95 136 -46 0
-54 -11 -91 -128 -21 -65 -41 -121 -45 -126 -4 -4 -22 38 -39 95 -17 57 -35
115 -39 129 -6 20 -15 26 -44 28 -20 2 -37 0 -37 -5z"/>
<path d="M7863 3278 c-11 -13 -41 -63 -68 -113 -26 -49 -61 -114 -77 -142
l-30 -53 41 0 c35 0 43 4 56 29 l15 30 112 3 112 3 19 -32 c16 -28 25 -33 58
-33 38 0 39 1 28 23 -64 118 -154 275 -166 290 -23 25 -75 22 -100 -5z m103
-130 c13 -26 24 -50 24 -53 0 -3 -34 -5 -75 -5 -41 0 -75 3 -75 6 0 3 16 35
37 71 41 74 41 74 89 -19z"/>
<path d="M8980 3136 l0 -166 35 0 35 0 0 50 0 50 79 0 79 0 37 -50 c33 -45 40
-50 76 -50 21 0 39 3 39 8 -1 4 -18 27 -40 51 l-39 45 29 17 c48 30 54 139 10
183 -19 19 -35 21 -180 24 l-160 3 0 -165z m294 72 c7 -11 7 -26 0 -45 l-9
-28 -108 -3 -107 -3 0 51 0 51 106 -3 c88 -2 109 -6 118 -20z"/>
<path d="M10263 3289 c-49 -14 -63 -51 -63 -163 0 -86 2 -98 24 -123 l24 -28
151 -3 151 -3 0 29 0 30 -130 4 c-139 3 -150 7 -150 56 0 22 1 22 140 22 l140
0 0 25 0 25 -140 0 c-139 0 -140 0 -140 23 0 42 16 47 152 47 l128 0 0 35 0
35 -127 -1 c-71 0 -143 -5 -160 -10z"/>
</g>
</svg>
